# xmcd
#
# Track frame offsets:
#	150
#	14172
#	30273
#	50931
#	66822
#	83092
#	105082
#	123571
#	149323
#	168339
#	190345
#	221064
#	241352
#	265801
#
# Disc length: 3787 seconds
#
# Revision: 0
# Processed by: cddbd v1.5.1PL0 Copyright (c) Steve Scherf et al.
# Submitted via: dBpowerAMP V4.0
#
DISCID=c60ec90e
DTITLE=Beau Jacque - Zydeco Giant
DYEAR=2000
DGENRE=Country
TTITLE0=Suzy Q
TTITLE1=The Second Line
TTITLE2=Breezin'
TTITLE3=Hot Tamale Baby
TTITLE4=I Ain't Gonna Worry My Life No
TTITLE5=I'm A Girl Watcher
TTITLE6=I'm A Lonely Boy
TTITLE7=I'm So Tired Of You Doing Me
TTITLE8=Morning Train
TTITLE9=No Good Woman (Papito's Bluff)
TTITLE10=No Good Woman
TTITLE11=Pine Point Trail Ride
TTITLE12=Rock Me, Baby
TTITLE13=That's My Car
EXTD=
EXTT0=
EXTT1=
EXTT2=
EXTT3=
EXTT4=
EXTT5=
EXTT6=
EXTT7=
EXTT8=
EXTT9=
EXTT10=
EXTT11=
EXTT12=
EXTT13=
PLAYORDER=
